<?xml version="1.0" encoding="UTF-8"?>
<svg id="Vrstva_1" xmlns="http://www.w3.org/2000/svg" version="1.1" viewBox="0 0 418.3 65.29">
  <!-- Generator: Adobe Illustrator 30.1.0, SVG Export Plug-In . SVG Version: 2.1.1 Build 136)  -->
  <defs>
    <style>
      .st0 {
        fill: #1d1d1b;
      }
    </style>
  </defs>
  <path class="st0" d="M93.61,7.44l-2.26.33h-1.2s-.53.53-.53.53h-.4s-1,1.93-1,1.93l.73,2.06h.66s1.06.66,1.06.66h5.85s2.26-.33,2.26-.33l.53.53.33.86.33.33v.86s.2,1.39.2,1.39v4.59s-.66,1.99-.66,1.99l.46,2.32v5.18s-.6,4.12-.6,4.12l.6,2.26v1.66s.2,1.13.2,1.13v8.84s-2.26.59-2.26.59h-2.06s-1.59.33-1.59.33l-.66-.33h-2.59s-1.79.8-1.79.8l-.47,2.12.66,1.26.87.6,2.46-.46h3.99s.33.33.33.33h4.84s1.26-.66,1.26-.66l1.92.33h2.26s.86.33.86.33h6.91s.87-.53.87-.53h.53s0-2.92,0-2.92l-1.06-1.2h-.66s-1.06-.53-1.06-.53h-2.59s-.67-.33-.67-.33l-1.92.33h-1.53s-.53.33-.53.33v-.66s-.33-.2-.33-.2l-.53.2v-5.38s-.27-2.26-.27-2.26l.6-.6v-1.2s-.4-.99-.4-.99l.87-1.53-.47-4.58v-7.77s-.33-1.2-.33-1.2v-3.39s-.27-.33-.27-.33v-.53s.6-1.2.6-1.2l-.33-.27v-3.39s.53-.33.53-.33l.33-.33,2.92-.53h3.65s.66-.33.66-.33l.86.33,1.06-.8.53-1.46-.53-2.05-1.73-.86h-20.31ZM134.71,47.49v-1.86s-.33-.33-.33-.33l.33-.87v-1.72s.33-2.26.33-2.26l-.33-5.05.4-4.59-.4-2.72.2-.2v-4.31s-.2-.33-.2-.33l.2-.53-.4-6.11.4-2.26h.33s.67-1.33.67-1.33l1.06-.4h1.2s.2.33.2.33h6.05s.26.33.26.33l1.73.4,1.4.66,1.73.6v.6s1.13,1.06,1.13,1.06l.53,2.06.73,1.46v1.06s.2.87.2.87l-.2.66.2.2.33.87-.33.33v5.71s-.2.66-.2.66v.87s-.33,2.26-.33,2.26v5.98s-.73,2.92-.73,2.92l-.66,1.4v.33s-1.73,2.46-1.73,2.46l-2.39,1-3.39.86h-4.52s-.33.2-.33.2h-1.39s-1.73-1.26-1.73-1.26ZM142.42,7.77l-.27-.33h-6.38s-1.39.33-1.39.33h-2.06s-.87.33-.87.33h-1.52s-1.06,1.92-1.06,1.92v2.91s-.33.33-.33.33l.33,4.25-.19,1.99v19.2s-.33,1.2-.33,1.2v12.28s.8,1.59.8,1.59l.93.46h3.12s1.86-.33,1.86-.33l3.32.33h5.45s.6-.53.6-.53l.87.2h2.32s4.52-2.26,4.52-2.26l3.05-2.98.4-1.33.66-1.2v-.86s.53-.53.53-.53v-2.06s.53-.53.53-.53v-5.45s-.2-1.4-.2-1.4v-3.79s-.33-1.93-.33-1.93v-7.24s-.33-1.73-.33-1.73v-1.73s-.86-1.73-.86-1.73l-.66-2.13-.4-.4-1.72-2.59-.66-.86-2.26-1.39h-.33s-.2-.66-.2-.66h-.66s-1.06-.53-1.06-.53l-3.79-1.19-1.4.33ZM73.28,6.71l-1.33,1.4-1.46,3.72-2.06,8.1-1.2,3.45-.33,1.73-.2.33-.86,3.12-.87,2.66v.86s-.86,1.73-.86,1.73l-1.2,3.45-1.59,1.46-1.53-4.71v-.2s-.6-.86-.6-.86v-.33s-.6-2.26-.6-2.26v-.66s-.53-1.13-.53-1.13l-.27-1.13-.66-1.26-2.26-7.3-.53-1.2v-.53s-.87-2.59-.87-2.59l-.66-.66v-1.2s-.53-2.26-.53-2.26l-1.39-2.85-2.46-.33-1.66.66-.6.73.4,1.26v2.79s1.07,3.59,1.07,3.59l.33.53.86,3.45.87,2.26.53,2.32.66.87.86,3.45.87,2.59v1.39s.86,1.73.86,1.73v.8s.87,2.99.87,2.99v.33s1.2,3.98,1.2,3.98v.33s1.26,4.25,1.26,4.25l.4.87.26.86.33.53.93,2.92,1.33.86h3.32s1.59-2.12,1.59-2.12l.53-1.66.87-2.12v-.66s1.59-4.92,1.59-4.92l.66-3.98.66-2.39v-1.06s.66-.73.66-.73l2.26-9.16,2.99-7.24.66-2.13.6-1.53.27-1.2.33-.86.53-2.79v-1.13s-1.13-1.2-1.13-1.2h-3.19ZM13.04,6.78l-1.72,1.73v3.45s-.33,2.59-.33,2.59v6.37s.33.53.33.53v3.99s-.33,1.46-.33,1.46l.33.53v1.73s.46,2.92.46,2.92l-.46.87v3.78s.53,2.79.53,2.79v4.05s.33,1.13.33,1.13v2s-.33.33-.33.33v2.92s.46.4.46.4l-.46.99.46,1.26.93.99h2.59s1.19-.53,1.19-.53v-.53s.66-1.92.66-1.92l-.33-1v-2.26s.2-1.19.2-1.19v-2.06s.33-1.99.33-1.99l-.33-2.92.46-2.72,1.06-.4.53.66.87.53,1.46,1.39v.73s.87.46.87.46l.86,1.2,1.13.53v.53s.6.33.6.33l.53,1.13.87.87.53.86.79.33.93,1.39.66.53.2.67,2.39,2.26,1.2,1.73,1.2,1.26,2.52.66.6-.53,1.06-.2.86-.87v-1.2s-.86-1.39-.86-1.39l-1.93-2.06-.86-1.53-.86-.8-.33-.6-1.39-1.4-.66-.86-2.26-2.33-.66-1.06-2.26-2.39-.86-1.39-.53-.53v-.33s-.73-.46-.73-.46l-1.33-2.46-1.39-2.06-.6-.53v-1.73s1.73-1.72,1.73-1.72v-.27s3.19-3.12,3.19-3.12l.87-1.73.86-.87,1.06-1.39,2.06-2.06,2.59-3.26,1.73-1.72.33-.53.86-.53,1.06-2.13-1.06-1.06-1.86-.33-1.06.33h-.86s-.53.6-.53.6l-.67.27-.86.6-.53.26-3.45,3.39-.53.86-1.46,1.53-.66,1-1.06.73-.27.53-.6.33-3.65,3.78h-.66s-.53.53-.53.53v-.86s-.46-2.39-.46-2.39l.46-2.79v-7.24s-1.53-1.39-1.53-1.39l-1.92-.33-1.72.33ZM181.74,48.75l-.86-.33-2.92-1.39v-.33s-.53-.53-.53-.53l-.33-.53-.47-.4-.93-3.05-.47-.87-.4-2.59-.33-1.13.33-.86v-2.59s.53-3.78.53-3.78l-.2-.86.2-.53v-2.59s.33-2.59.33-2.59v-1.2s.53-1.06.53-1.06v-2.46s1.39-3.26,1.39-3.26l2.73-2.66,4.05-.66,1.59.47h.86s.33.19.33.19h.2s1.73,2.06,1.73,2.06l.79.6.73,1.99.47.93.4,3.06v1.13s.2,1.72.2,1.72l.33.53v.33s.33.86.33.86v1.4s.2.86.2.86v8.97s-.2.87-.2.87v1.39s-.66,3.45-.66,3.45l-.53,1.13-.33,1.2-.53.53-.53.86-.87.53-.66.67h-.87s-1.06.53-1.06.53h-.86s-2.79.46-2.79.46l-.93-.46ZM185.73,6.05l-.6.2-.53-.2h-2.86s-2.06.53-2.06.53l-.53.33h-.33s-.53.2-.53.2h-.53s-3.79,1.92-3.79,1.92l-.86,1.33-1.86,1.79-.73,2.19-.33.53-.87,3.45-.53,1.73v9.43s.33,1.53.33,1.53v1.92s.2.87.2.87l.33.86v1.53s.33,2.79.33,2.79v2.85s.53.6.53.6v2.33s2.05,3.12,2.05,3.12l1.06,2.06,1.19.53.4,1,2.73,1.26h.66s2.26,1.2,2.26,1.2h3.72s.53-.33.53-.33h.6s1.13-.2,1.13-.2h1.73s.53-.66.53-.66h.66s1.39-1.4,1.39-1.4l.87-.53,2.92-2.92,1.06-3.12v-1.2s.33-.27.33-.27l.33-1.46.53-1.13v-8.83s.33-.33.33-.33l-.33-2.06.53-.53v-6.38s-.53-1.06-.53-1.06l.33-.6-.33-1.13v-.6s-.33-.26-.33-.26v-2.79s-1.39-3.19-1.39-3.19l-.73-1.93-3.25-3.25-2.06-.86h-.33s-.53-.33-.53-.33h-1.2s-1.66-.53-1.66-.53Z"/>
  <path class="st0" d="M8.39,42.38l-.66,1,1.07-1.27-.4.27ZM9.46,32.22v.27s.61-.87.61-.87l-.61.61ZM10.07,31.61l.77-.77.35-.7v-.14s-1.12,1.61-1.12,1.61ZM11.58,19.39h0s-.02-.01-.02-.01h0ZM4.89,20.14l-.05-.1-.78-.83-.1-.09.93,1.01ZM3.85,19.03l.11.1-.13-.15.02.05ZM3.83,18.98l-.02-.02-.33-.35.35.38ZM6.33,21.7l.12.11.05.06-.16-.18ZM10.23,17.83l-.03-.09.17.2-.15-.11ZM8.59,16.35v-.53s.73.87.73.87l-.73-.34ZM2.13,11.79l-1.06.2-.86.86v1.2s.86,1.39.86,1.39l1.93,2.06.82,1.46.24.26.66.61.12.22.9.95.12.19-.97-1.05.16.28.87.87.68,1.1.53.53v.33s.73.46.73.46l1.33,2.46,1.4,2.06.6.53v1.24s.24-.34.24-.34l-.24.48v.35s-.35.35-.35.35l-.27.54-.87.87-1.06,1.39-2.06,2.06-2.59,3.26-1.73,1.72-.33.53-.87.53-1.06,2.13,1.06,1.06,1.86.33,1.06-.33h.87s.53-.6.53-.6l.66-.27.87-.6.53-.27,2.4-2.35-1.04,1.25.66-.45.27-.53.6-.33,3.66-3.78h.66s.53-.53.53-.53v.86s.46,2.39.46,2.39l.2-20.98-.46,2.72-1.06.4-.53-.66-.76-.47-.39-.64-.55-.23-.49-.46.33.4-.1-.04-.24-.36-.13-.12v-.03s.12.15.12.15l-.12-.18v-.66s-.86-.46-.86-.46l-.49-.67-.07-.23-2.39-2.26-1.2-1.72-1.2-1.26-2.53-.66-.6.53Z"/>
  <g>
    <path class="st0" d="M229.17,60.23c2.92-2.22,2.49-11.05,2.49-15.95,0-10.14.03-12.89-.94-14.64-1.01-1.78-2.85-2.65-2.85-4.2,0-2.05,6.11-3.42,7.69-3.56,1.58-.13,1.91.74,1.91,1.48,0,.67-.13,1.28-.17,2.12-.03.74.4,1.07.91.47,2.08-2.55,5.37-4.26,8.5-4.26,5.41,0,10.78,4.33,10.78,13,0,9.27-6.25,16.12-14.71,15.95-2.05-.03-3.49-.2-5.3-.91-.07,2.21-.44,6.24.8,8.22,1.24,2.02,4.77,1.95,5.04,3.9.37,2.59-4.27,2.18-9.5,2.35-3.76,0-6.78.97-6.78-1.38,0-1.18,1.18-1.85,2.15-2.58ZM243.11,46.77c4.8,0,7.99-4.6,7.99-10.34,0-5.2-2.55-9.2-7.35-9.2-1.64,0-4.2.91-5.3,2.99-1.14,2.08-.97,4.73-.97,7.25,0,6.08,1.71,9.3,5.64,9.3Z"/>
    <path class="st0" d="M275.2,50.63c-7.86,0-14-5.91-14-14.2,0-8.23,5.84-14.74,14.57-14.74,7.62,0,13.8,5.61,13.8,14.24s-6.08,14.71-14.37,14.71ZM274.89,26.05c-2.92,0-6.82,2.49-6.82,9.43,0,7.22,4.23,10.95,8.09,10.95,3.02,0,6.52-2.45,6.52-9.3,0-7.62-4.3-11.08-7.79-11.08Z"/>
    <path class="st0" d="M293.35,23.16c1.81-1.75,3.66-3.53,5.3-5.24.97-1.01,1.78-1.28,2.35-1.28.74,0,1.61.64,1.61,1.95,0,.91-.13,1.65-.13,3.46,0,.47.17.71.77.71h7.02c1.35,0,1.81.37,1.81,1.11s-.27,2.72-1.01,3.32c-.57.47-1.24.6-2.32.6-1.35,0-3.22-.03-5.34-.13-.81-.03-1.07.17-1.18.97-.4,3.32-.4,9.67-.4,11.58,0,3.73,1.98,5.04,4.03,5.04,1.11,0,2.85-.54,4.33-1.24,1.51-.71,3.05.5,1.54,2.21-2.89,3.32-5.74,4.4-8.63,4.4-2.42,0-6.95-.94-7.05-6.88-.03-2.12.04-4.6.07-7.39.03-4.8-.13-6.78-2.05-8.66-1.35-1.31-1.81-1.81-1.81-2.75,0-.67.37-1.11,1.07-1.78Z"/>
    <path class="st0" d="M315.86,23.16c1.81-1.75,3.66-3.53,5.3-5.24.97-1.01,1.78-1.28,2.35-1.28.74,0,1.61.64,1.61,1.95,0,.91-.13,1.65-.13,3.46,0,.47.17.71.77.71h7.02c1.35,0,1.81.37,1.81,1.11s-.27,2.72-1.01,3.32c-.57.47-1.24.6-2.32.6-1.35,0-3.22-.03-5.34-.13-.81-.03-1.07.17-1.18.97-.4,3.32-.4,9.67-.4,11.58,0,3.73,1.98,5.04,4.03,5.04,1.11,0,2.85-.54,4.33-1.24,1.51-.71,3.05.5,1.54,2.21-2.89,3.32-5.74,4.4-8.63,4.4-2.42,0-6.95-.94-7.05-6.88-.03-2.12.04-4.6.07-7.39.03-4.8-.13-6.78-2.05-8.66-1.35-1.31-1.81-1.81-1.81-2.75,0-.67.37-1.11,1.07-1.78Z"/>
    <path class="st0" d="M349.58,21.68c4.73,0,9.47,3.06,9.47,9.03,0,2.05-.37,3.53-3.53,3.53h-11.99c-.03.5-.03.67-.03,1.21,0,7.49,3.83,9.64,7.05,9.64,3.42,0,5.54-1.88,6.65-2.92,1.07-1.01,2.52-.64,2.02,1.21-.6,2.29-4.1,7.25-10.91,7.25-6.35,0-11.69-5.07-11.69-13.3,0-8.4,4.97-15.65,12.96-15.65ZM344.24,30.08c-.13.44,0,.74.57.74l5.98-.1c1.44,0,1.71-.71,1.71-1.58,0-1.88-1.58-3.43-3.52-3.43-2.22,0-3.83,1.68-4.74,4.37Z"/>
    <path class="st0" d="M364.57,45.62c2.02-1.65,1.71-5,1.74-8.7.04-4.13-.13-6.88-2.05-8.76-1.18-1.14-1.78-1.75-1.78-2.68,0-2.22,6.62-3.43,7.86-3.59,1.51-.2,1.75.64,1.75,1.61s-.2,1.68-.24,2.05c-.07.77.47,1.01,1.01.24,1.51-2.22,5.04-4.2,8.86-3.12,1.68.47,1.61,1.24.91,3.29-.77,2.28-1.28,3.46-1.98,3.46-.3,0-.6-.03-1.14-.3-2.59-1.38-4.77-1.41-6.21.71-1.07,1.61-1.24,3.59-1.24,7.69,0,2.59.07,5.98,1.61,7.62,1.04,1.11,3.09,1.54,3.09,3.02,0,2.45-4.16,1.58-7.52,1.58-3.73,0-6.92.8-6.92-1.45,0-1.17,1.34-1.91,2.25-2.65Z"/>
    <path class="st0" d="M390.94,22.59c3.76,0,6.95-.67,6.95,1.41,0,1.17-1.34,1.88-1.85,2.28-.94.77-.4,1.98.07,3.12l4.06,9.5c.27.67.77.67,1.04.03l3.9-9.4c.54-1.28.77-2.32-.14-2.99-.97-.74-2.15-1.41-2.15-2.59,0-2.02,2.18-1.38,5.94-1.38,3.76,0,6.15-.54,6.15,1.38,0,1.18-1.24,1.88-2.25,2.49-2.18,1.31-2.59,2.45-3.69,5.04l-8.5,18.97-3.56,12.25c-.64,2.02-1.88,2.92-4.46,2.45-2.18-.4-2.96-1.54-3.02-2.15-.13-1.14.3-1.71,1.18-2.85,1.81-2.38,3.66-5.47,4.74-7.49,1.81-3.46,1.71-6.18.2-9.57l-4.7-10.68c-1.07-2.42-2.05-4.77-4.27-5.94-1.34-.7-2.42-1.21-2.42-2.45,0-2.01,3.02-1.44,6.78-1.44Z"/>
  </g>
</svg>